<svg xmlns="http://www.w3.org/2000/svg" viewBox="0 0 256 256" width="256" height="256">
  <defs>
    <radialGradient id="mg-spellcaster" cx="50%" cy="40%" r="55%">
      <stop offset="0%" stop-color="#8080e0"/>
      <stop offset="45%" stop-color="#6060c0"/>
      <stop offset="100%" stop-color="#0c0820"/>
    </radialGradient>
  </defs>
  <rect width="256" height="256" fill="#080618"/>
  <circle cx="128" cy="105" r="110" fill="url(#mg-spellcaster)" opacity="0.7"/>
  <!-- Arcane circle -->
  <circle cx="128" cy="110" r="55" fill="none" stroke="#8090e0" stroke-width="2" opacity="0.4"/>
  <circle cx="128" cy="110" r="45" fill="none" stroke="#a0b0ff" stroke-width="1.5" opacity="0.3"/>
  <!-- Crystal orb -->
  <circle cx="128" cy="105" r="22" fill="#4050a0" opacity="0.5"/>
  <circle cx="128" cy="105" r="16" fill="#6070c0" opacity="0.4"/>
  <circle cx="128" cy="105" r="8" fill="#a0b0ff" opacity="0.5"/>
  <circle cx="122" cy="98" r="3" fill="#d0d8ff" opacity="0.6"/>
  <!-- Rune marks around circle -->
  <text x="128" y="52" text-anchor="middle" font-size="12" fill="#a0b0ff" opacity="0.5">&#x2726;</text>
  <text x="180" y="115" text-anchor="middle" font-size="10" fill="#8090e0" opacity="0.4">&#x2727;</text>
  <text x="76" y="115" text-anchor="middle" font-size="10" fill="#8090e0" opacity="0.4">&#x2727;</text>
  <text x="128" y="170" text-anchor="middle" font-size="12" fill="#a0b0ff" opacity="0.5">&#x2726;</text>
  <!-- Staff -->
  <line x1="128" y1="130" x2="128" y2="220" stroke="#707090" stroke-width="3" opacity="0.5"/>
  <line x1="128" y1="130" x2="128" y2="220" stroke="#9090b0" stroke-width="1.5" opacity="0.3"/>
  <!-- Floating particles -->
  <circle cx="95" cy="65" r="2" fill="#a0b0ff" opacity="0.7"/>
  <circle cx="165" cy="75" r="2" fill="#c0c8ff" opacity="0.6"/>
  <circle cx="80" cy="140" r="1.5" fill="#8090e0" opacity="0.5"/>
  <circle cx="178" cy="150" r="1.5" fill="#a0b0ff" opacity="0.4"/>
  <circle cx="110" cy="180" r="2" fill="#8080c0" opacity="0.4"/>
  <!-- Sparkles -->
  <text x="55" y="85" font-size="8" fill="#a0b0ff" opacity="0.5">&#x2726;</text>
  <text x="190" y="90" font-size="8" fill="#c0c8ff" opacity="0.4">&#x2726;</text>
</svg>