<svg xmlns="http://www.w3.org/2000/svg" viewBox="0 0 256 256" width="256" height="256">
  <defs>
    <radialGradient id="mg-insect" cx="50%" cy="45%" r="55%">
      <stop offset="0%" stop-color="#b0c060"/>
      <stop offset="45%" stop-color="#90a040"/>
      <stop offset="100%" stop-color="#0c1004"/>
    </radialGradient>
  </defs>
  <rect width="256" height="256" fill="#060a02"/>
  <circle cx="128" cy="115" r="110" fill="url(#mg-insect)" opacity="0.6"/>
  <!-- Butterfly/moth wings left -->
  <path d="M128,120 Q95,90 65,70 Q45,60 40,80 Q35,100 55,115 Q75,130 128,130" fill="#90a040" opacity="0.3"/>
  <path d="M128,130 Q90,135 65,155 Q50,170 55,185 Q65,195 85,180 Q105,165 128,140" fill="#80903a" opacity="0.25"/>
  <!-- Wings right -->
  <path d="M128,120 Q161,90 191,70 Q211,60 216,80 Q221,100 201,115 Q181,130 128,130" fill="#90a040" opacity="0.3"/>
  <path d="M128,130 Q166,135 191,155 Q206,170 201,185 Q191,195 171,180 Q151,165 128,140" fill="#80903a" opacity="0.25"/>
  <!-- Wing patterns -->
  <circle cx="80" cy="90" r="10" fill="#b0c060" opacity="0.25"/>
  <circle cx="176" cy="90" r="10" fill="#b0c060" opacity="0.25"/>
  <circle cx="85" cy="160" r="7" fill="#a0b050" opacity="0.2"/>
  <circle cx="171" cy="160" r="7" fill="#a0b050" opacity="0.2"/>
  <!-- Body -->
  <ellipse cx="128" cy="125" rx="5" ry="20" fill="#708030" opacity="0.5"/>
  <!-- Antennae -->
  <path d="M126,105 Q115,80 105,60" fill="none" stroke="#a0b050" stroke-width="1.5" opacity="0.5"/>
  <path d="M130,105 Q141,80 151,60" fill="none" stroke="#a0b050" stroke-width="1.5" opacity="0.5"/>
  <circle cx="105" cy="60" r="3" fill="#c0d070" opacity="0.5"/>
  <circle cx="151" cy="60" r="3" fill="#c0d070" opacity="0.5"/>
  <!-- Inner glow -->
  <circle cx="128" cy="120" r="18" fill="#90a040" opacity="0.15"/>
  <!-- Floating particles -->
  <circle cx="50" cy="100" r="2" fill="#c0d070" opacity="0.6"/>
  <circle cx="206" cy="95" r="2" fill="#b0c060" opacity="0.5"/>
  <circle cx="40" cy="175" r="1.5" fill="#a0b050" opacity="0.4"/>
  <circle cx="216" cy="170" r="1.5" fill="#c0d070" opacity="0.4"/>
  <!-- Sparkles -->
  <text x="35" y="60" font-size="9" fill="#c0d070" opacity="0.5">&#x2726;</text>
  <text x="205" y="55" font-size="8" fill="#b0c060" opacity="0.4">&#x2726;</text>
</svg>