<svg xmlns="http://www.w3.org/2000/svg" viewBox="0 0 256 256" width="256" height="256">
  <defs>
    <radialGradient id="mg-warrior" cx="50%" cy="45%" r="55%">
      <stop offset="0%" stop-color="#e0b040"/>
      <stop offset="45%" stop-color="#c09030"/>
      <stop offset="100%" stop-color="#1a0c04"/>
    </radialGradient>
  </defs>
  <rect width="256" height="256" fill="#0e0804"/>
  <circle cx="128" cy="115" r="110" fill="url(#mg-warrior)" opacity="0.6"/>
  <!-- Crossed swords -->
  <line x1="80" y1="180" x2="160" y2="50" stroke="#d0a840" stroke-width="4" opacity="0.6" stroke-linecap="round"/>
  <line x1="176" y1="180" x2="96" y2="50" stroke="#d0a840" stroke-width="4" opacity="0.6" stroke-linecap="round"/>
  <!-- Sword guards -->
  <line x1="148" y1="70" x2="172" y2="62" stroke="#c09030" stroke-width="3" opacity="0.5"/>
  <line x1="108" y1="70" x2="84" y2="62" stroke="#c09030" stroke-width="3" opacity="0.5"/>
  <!-- Blade highlights -->
  <line x1="82" y1="176" x2="158" y2="54" stroke="#f0d060" stroke-width="1.5" opacity="0.3"/>
  <line x1="174" y1="176" x2="98" y2="54" stroke="#f0d060" stroke-width="1.5" opacity="0.3"/>
  <!-- Shield center -->
  <ellipse cx="128" cy="130" rx="25" ry="30" fill="#806020" opacity="0.4"/>
  <ellipse cx="128" cy="130" rx="18" ry="22" fill="#a08030" opacity="0.3"/>
  <ellipse cx="128" cy="130" rx="8" ry="10" fill="#c0a040" opacity="0.3"/>
  <!-- Inner glow -->
  <circle cx="128" cy="110" r="20" fill="#d0a840" opacity="0.15"/>
  <!-- Floating particles -->
  <circle cx="60" cy="80" r="2" fill="#e0c060" opacity="0.6"/>
  <circle cx="196" cy="90" r="2" fill="#d0a840" opacity="0.5"/>
  <circle cx="75" cy="140" r="1.5" fill="#c09030" opacity="0.5"/>
  <circle cx="185" cy="150" r="1.5" fill="#e0c060" opacity="0.4"/>
  <!-- Sparkles -->
  <text x="50" y="55" font-size="10" fill="#e0c060" opacity="0.6">&#x2726;</text>
  <text x="195" y="60" font-size="8" fill="#d0a840" opacity="0.5">&#x2726;</text>
  <text x="128" y="210" font-size="8" fill="#c09030" opacity="0.4">&#x2726;</text>
</svg>