<svg xmlns="http://www.w3.org/2000/svg" viewBox="0 0 256 256" width="256" height="256">
  <defs>
    <radialGradient id="mg-phoenix" cx="50%" cy="40%" r="55%">
      <stop offset="0%" stop-color="#f08040"/>
      <stop offset="45%" stop-color="#e06020"/>
      <stop offset="100%" stop-color="#1a0804"/>
    </radialGradient>
  </defs>
  <rect width="256" height="256" fill="#100602"/>
  <circle cx="128" cy="105" r="110" fill="url(#mg-phoenix)" opacity="0.6"/>
  <!-- Phoenix body -->
  <path d="M128,100 Q120,110 115,125 Q110,140 115,155 Q120,170 128,180" fill="none" stroke="#f08040" stroke-width="3" opacity="0.5"/>
  <!-- Wing left spread -->
  <path d="M115,125 Q85,100 55,80 Q40,72 30,65" fill="none" stroke="#e06020" stroke-width="3.5" opacity="0.5"/>
  <path d="M115,130 Q90,112 65,98 Q50,92 38,80" fill="none" stroke="#f09050" stroke-width="2" opacity="0.4"/>
  <path d="M115,135 Q95,120 75,112" fill="none" stroke="#e07030" stroke-width="2" opacity="0.35"/>
  <!-- Wing right spread -->
  <path d="M141,125 Q171,100 201,80 Q216,72 226,65" fill="none" stroke="#e06020" stroke-width="3.5" opacity="0.5"/>
  <path d="M141,130 Q166,112 191,98 Q206,92 218,80" fill="none" stroke="#f09050" stroke-width="2" opacity="0.4"/>
  <path d="M141,135 Q161,120 181,112" fill="none" stroke="#e07030" stroke-width="2" opacity="0.35"/>
  <!-- Head -->
  <circle cx="128" cy="92" r="10" fill="#f09050" opacity="0.4"/>
  <circle cx="128" cy="90" r="5" fill="#f0c080" opacity="0.4"/>
  <!-- Crest -->
  <path d="M128,82 Q125,65 120,50" fill="none" stroke="#f08040" stroke-width="2" opacity="0.5"/>
  <path d="M128,82 Q132,65 138,52" fill="none" stroke="#f08040" stroke-width="2" opacity="0.5"/>
  <!-- Tail flames -->
  <path d="M128,180 Q120,200 115,220 Q110,235 118,240" fill="none" stroke="#e06020" stroke-width="2.5" opacity="0.4"/>
  <path d="M128,180 Q136,200 140,220 Q145,235 138,240" fill="none" stroke="#f08040" stroke-width="2" opacity="0.35"/>
  <!-- Flame particles rising -->
  <circle cx="100" cy="55" r="2.5" fill="#f0a060" opacity="0.7"/>
  <circle cx="160" cy="50" r="2.5" fill="#f0c080" opacity="0.6"/>
  <circle cx="45" cy="60" r="2" fill="#e06020" opacity="0.5"/>
  <circle cx="212" cy="58" r="2" fill="#e06020" opacity="0.5"/>
  <circle cx="80" cy="40" r="1.5" fill="#f09050" opacity="0.5"/>
  <circle cx="178" cy="38" r="1.5" fill="#f0a060" opacity="0.4"/>
  <!-- Sparkles -->
  <text x="35" y="50" font-size="10" fill="#f0c080" opacity="0.6">&#x2726;</text>
  <text x="210" y="48" font-size="8" fill="#f0a060" opacity="0.5">&#x2726;</text>
  <text x="128" y="45" font-size="8" fill="#f0d090" opacity="0.4">&#x2726;</text>
</svg>