<svg xmlns="http://www.w3.org/2000/svg" viewBox="0 0 256 256" width="256" height="256">
  <defs>
    <radialGradient id="mg-dragon" cx="50%" cy="45%" r="55%">
      <stop offset="0%" stop-color="#a060e0"/>
      <stop offset="45%" stop-color="#8040c0"/>
      <stop offset="100%" stop-color="#100420"/>
    </radialGradient>
  </defs>
  <rect width="256" height="256" fill="#0a0418"/>
  <circle cx="128" cy="115" r="115" fill="url(#mg-dragon)" opacity="0.7"/>
  <!-- Dragon body serpentine curve -->
  <path d="M80,200 Q60,160 70,120 Q80,80 110,60 Q130,48 140,55 Q150,62 145,75 Q140,88 150,95 Q160,100 175,90 Q190,80 195,100 Q200,120 185,140 Q170,160 180,180" fill="none" stroke="#c080ff" stroke-width="4" opacity="0.6"/>
  <!-- Wing left -->
  <path d="M110,60 Q70,30 55,50 Q40,70 70,80" fill="none" stroke="#a060d0" stroke-width="3" opacity="0.5"/>
  <path d="M110,60 Q80,25 65,40" fill="none" stroke="#a060d0" stroke-width="2" opacity="0.4"/>
  <!-- Wing right -->
  <path d="M145,75 Q180,40 200,55 Q215,70 185,85" fill="none" stroke="#a060d0" stroke-width="3" opacity="0.5"/>
  <path d="M145,75 Q185,35 195,48" fill="none" stroke="#a060d0" stroke-width="2" opacity="0.4"/>
  <!-- Head detail -->
  <circle cx="135" cy="52" r="4" fill="#e0b0ff" opacity="0.6"/>
  <!-- Inner glow -->
  <circle cx="128" cy="110" r="30" fill="#8040c0" opacity="0.2"/>
  <circle cx="128" cy="110" r="14" fill="#c080ff" opacity="0.15"/>
  <!-- Floating particles -->
  <circle cx="60" cy="90" r="2" fill="#c0a0ff" opacity="0.7"/>
  <circle cx="200" cy="70" r="2" fill="#e0c0ff" opacity="0.6"/>
  <circle cx="90" cy="45" r="1.5" fill="#a080e0" opacity="0.5"/>
  <circle cx="170" cy="170" r="2" fill="#c0a0ff" opacity="0.5"/>
  <circle cx="50" cy="150" r="1.5" fill="#a060d0" opacity="0.4"/>
  <!-- Sparkles -->
  <text x="45" y="65" font-size="10" fill="#c0a0ff" opacity="0.6">&#x2726;</text>
  <text x="210" y="50" font-size="8" fill="#e0c0ff" opacity="0.5">&#x2726;</text>
  <text x="165" y="200" font-size="8" fill="#a080e0" opacity="0.4">&#x2726;</text>
</svg>